<svg width="112" height="114" viewBox="0 0 112 114" fill="none" xmlns="http://www.w3.org/2000/svg">
<path d="M29.032 80.592C28.008 80.592 27.496 79.728 27.496 78C27.432 76.4 27.464 73.872 27.592 70.416C27.72 66.96 27.784 63.088 27.784 58.8C27.784 55.344 27.688 51.792 27.496 48.144C27.368 44.432 27.048 40.88 26.536 37.488C26.088 34.032 25.416 30.96 24.52 28.272C23.624 25.584 22.44 23.44 20.968 21.84C19.56 20.24 17.832 19.44 15.784 19.44C13.608 19.44 11.688 19.984 10.024 21.072C8.424 22.096 6.92 23.376 5.512 24.912C4.168 26.448 2.792 27.952 1.384 29.424C1 29.872 0.744 30 0.616 29.808C0.424 29.616 0.36 29.392 0.424 29.136C1 27.856 1.96 26.416 3.304 24.816C4.712 23.216 6.28 21.712 8.008 20.304C9.8 18.832 11.624 17.648 13.48 16.752C15.4 15.792 17.128 15.312 18.664 15.312C21.096 15.312 23.176 16.432 24.904 18.672C26.632 20.912 28.008 23.92 29.032 27.696C30.12 31.472 30.888 35.728 31.336 40.464C31.848 45.136 32.104 49.968 32.104 54.96C32.104 62.448 31.656 69.488 30.76 76.08C31.912 72.176 33.288 67.856 34.888 63.12C36.488 58.32 38.344 53.36 40.456 48.24C42.568 43.056 44.904 37.968 47.464 32.976C50.088 27.984 52.936 23.344 56.008 19.056C59.144 14.704 62.536 10.96 66.184 7.824C69.896 4.624 73.832 2.288 77.992 0.815998C79.656 0.303997 81.16 0.0479965 82.504 0.0479965C84.744 0.0479965 86.696 0.655996 88.36 1.872C90.088 3.024 91.144 4.784 91.528 7.152V7.34399C91.528 7.91999 91.4 8.49599 91.144 9.07199C90.952 9.64799 90.728 9.936 90.472 9.936C90.088 9.936 89.896 9.264 89.896 7.92C89.896 6.384 89.48 5.072 88.648 3.984C87.816 2.832 86.44 2.256 84.52 2.256C83.368 2.256 81.96 2.544 80.296 3.12C75.432 4.784 70.696 7.888 66.088 12.432C61.544 16.976 57.224 22.576 53.128 29.232C49.032 35.888 45.224 43.312 41.704 51.504C38.184 59.632 35.048 68.208 32.296 77.232C32.04 78.128 31.56 78.896 30.856 79.536C30.216 80.24 29.608 80.592 29.032 80.592ZM76.3923 114C73.4483 114 70.6003 112.784 67.8483 110.352C65.1603 107.92 62.8883 104.4 61.0323 99.792C59.2403 95.184 58.1843 89.616 57.8643 83.088C55.8803 83.28 54.0563 83.376 52.3923 83.376C48.6803 83.376 45.9602 82.896 44.2323 81.936C42.5682 80.976 41.7362 79.728 41.7362 78.192C41.7362 76.656 42.4722 74.96 43.9443 73.104C45.4163 71.248 47.4643 69.392 50.0883 67.536C52.7123 65.616 55.7843 63.888 59.3043 62.352C60.5203 55.824 62.4723 48.784 65.1603 41.232C67.9123 33.616 71.5923 25.552 76.2003 17.04C76.6483 16.208 77.3203 15.792 78.2163 15.792C78.7923 15.792 79.3043 15.984 79.7523 16.368C80.2003 16.752 80.4243 17.264 80.4243 17.904C80.4243 18.224 80.3283 18.64 80.1363 19.152C76.0403 27.408 72.6163 34.992 69.8643 41.904C67.1763 48.752 65.0643 55.024 63.5283 60.72C66.4083 59.632 69.4803 58.736 72.7443 58.032C76.0083 57.328 79.3363 56.912 82.7283 56.784C83.6243 56.784 84.0723 56.912 84.0723 57.168C84.0723 57.424 83.7523 57.68 83.1123 57.936C82.5363 58.128 81.5443 58.256 80.1363 58.32C77.0003 58.512 73.9923 58.96 71.1123 59.664C68.2963 60.304 65.6403 61.104 63.1443 62.064C62.1843 65.776 61.4483 69.232 60.9363 72.432C60.4243 75.568 60.1043 78.48 59.9763 81.168C66.5683 79.76 72.5523 77.712 77.9283 75.024C83.3683 72.272 88.1683 69.104 92.3283 65.52C96.4883 61.936 99.9763 58.224 102.792 54.384C104.584 51.952 105.864 49.808 106.632 47.952C107.464 46.032 107.88 44.368 107.88 42.96C107.88 40.912 107.24 39.312 105.96 38.16C104.68 36.944 102.984 36.08 100.872 35.568C98.7603 34.992 96.4563 34.704 93.9603 34.704C91.3363 34.704 88.6803 34.96 85.9923 35.472C83.3043 35.92 80.8723 36.56 78.6963 37.392C78.1843 37.52 77.8323 37.584 77.6403 37.584C76.8083 37.584 76.3923 37.296 76.3923 36.72C76.3923 36.144 76.7443 35.696 77.4483 35.376C85.3203 30.896 90.9203 26.832 94.2483 23.184C97.5763 19.536 99.2403 16.464 99.2403 13.968C99.2403 11.792 98.2163 10.128 96.1683 8.976C94.1843 7.76 91.5603 7.152 88.2963 7.152C85.7363 7.152 82.8563 7.568 79.6563 8.4C76.4563 9.232 73.1603 10.576 69.7683 12.432C66.9523 13.968 64.3923 15.792 62.0883 17.904C59.8483 19.952 57.9283 22.096 56.3282 24.336C54.7923 26.512 53.6403 28.592 52.8723 30.576C52.1043 32.496 51.8163 34.128 52.0083 35.472C52.0083 35.6 52.0083 35.76 52.0083 35.952C52.0723 36.08 52.1043 36.208 52.1043 36.336C52.1043 37.936 51.6243 38.736 50.6643 38.736C50.2163 38.736 49.7363 38.416 49.2243 37.776C48.7763 37.136 48.5523 36.176 48.5523 34.896C48.5523 32.976 49.1283 30.928 50.2803 28.752C51.4963 26.576 53.0963 24.4 55.0803 22.224C57.1283 19.984 59.4003 17.904 61.8963 15.984C64.3923 14 66.9843 12.304 69.6723 10.896C73.1283 9.04 76.5203 7.664 79.8483 6.768C83.2403 5.872 86.3443 5.424 89.1603 5.424C93.0643 5.424 96.2323 6.192 98.6643 7.72799C101.096 9.264 102.312 11.408 102.312 14.16C102.312 16.72 101.064 19.696 98.5683 23.088C96.0723 26.48 91.8803 30.224 85.9923 34.32C87.9763 34 89.8323 33.776 91.5603 33.648C93.2883 33.456 94.8883 33.36 96.3603 33.36C101.864 33.36 105.832 34.288 108.264 36.144C110.76 37.936 112.008 40.272 112.008 43.152C112.008 45.264 111.4 47.568 110.184 50.064C109.032 52.496 107.4 55.024 105.288 57.648C102.216 61.424 98.3443 65.072 93.6723 68.592C89.0643 72.112 83.8803 75.152 78.1203 77.712C72.4243 80.272 66.3443 82 59.8803 82.896C59.7523 88.592 60.2643 93.296 61.4163 97.008C62.6323 100.72 64.1683 103.6 66.0243 105.648C67.8803 107.76 69.7363 109.232 71.5923 110.064C73.4483 110.96 74.9843 111.408 76.2003 111.408C77.0963 111.408 77.7043 111.248 78.0243 110.928C78.2803 110.608 78.6643 110.448 79.1763 110.448C79.6883 110.448 80.1683 110.64 80.6163 111.024C81.0643 111.408 81.2883 111.824 81.2883 112.272C81.2883 112.656 81.0643 112.944 80.6163 113.136C79.2083 113.712 77.8003 114 76.3923 114ZM52.7763 82.128C53.4803 82.128 54.2483 82.064 55.0803 81.936C55.9123 81.872 56.8082 81.776 57.7682 81.648C57.7043 78.96 57.7683 76.144 57.9603 73.2C58.1523 70.256 58.5043 67.184 59.0163 63.984C54.9203 66.096 51.6883 68.464 49.3203 71.088C46.9523 73.648 45.7683 75.92 45.7683 77.904C45.7683 79.12 46.3443 80.112 47.4963 80.88C48.6483 81.712 50.4083 82.128 52.7763 82.128Z" fill="white"/>
</svg>
