<svg width="62" height="77" viewBox="0 0 62 77" fill="none" xmlns="http://www.w3.org/2000/svg">
<path d="M0.448 0.199999H7.072L11.2 42.968L13.408 68.072H7.744L0.448 0.199999ZM8.272 71.24H15.472L17.968 42.968L22 0.199999H28.72L20.128 77H8.992L8.272 71.24ZM36.1818 77V0.199999H42.5178V77H36.1818ZM46.7418 77V71.24H48.3258C50.4378 71.24 52.0058 70.696 53.0298 69.608C54.0538 68.52 54.5818 66.824 54.6138 64.52C54.7098 61.8 54.7578 59.24 54.7578 56.84C54.7578 54.44 54.7098 51.88 54.6138 49.16C54.5818 46.312 54.0378 44.28 52.9818 43.064C51.9258 41.816 50.2458 41.192 47.9418 41.192H46.7418V35.48H48.1818C50.3258 35.48 51.9098 34.856 52.9338 33.608C53.9578 32.36 54.5018 30.44 54.5658 27.848C54.6618 25.096 54.7098 22.504 54.7098 20.072C54.7098 17.64 54.6618 15.064 54.5658 12.344C54.5018 10.136 53.9578 8.52 52.9338 7.496C51.9098 6.472 50.3578 5.96 48.2778 5.96H46.7418V0.199999H48.2778C52.6298 0.199999 55.8138 1.16 57.8298 3.08C59.8458 5 60.8698 8.184 60.9018 12.632C60.9658 15.832 60.9978 18.632 60.9978 21.032C60.9978 23.432 60.9658 25.736 60.9018 27.944C60.8058 30.632 60.2938 32.728 59.3658 34.232C58.4698 35.736 57.0618 36.84 55.1418 37.544V39.32C57.1258 39.96 58.5818 41.048 59.5098 42.584C60.4378 44.12 60.9338 46.232 60.9978 48.92C61.0618 51.736 61.0938 54.344 61.0938 56.744C61.0938 59.144 61.0618 61.752 60.9978 64.568C60.8378 68.984 59.7658 72.168 57.7818 74.12C55.8298 76.04 52.6778 77 48.3258 77H46.7418Z" fill="white"/>
</svg>
